<?xml version="1.0" encoding="utf-8"?>
<!-- Generator: Adobe Illustrator 21.0.2, SVG Export Plug-In . SVG Version: 6.00 Build 0)  -->
<svg version="1.1" id="Layer_1" xmlns="http://www.w3.org/2000/svg" xmlns:xlink="http://www.w3.org/1999/xlink" x="0px" y="0px"
	 viewBox="0 0 24 24" style="enable-background:new 0 0 24 24;" xml:space="preserve">
<style type="text/css">
	.st0{opacity:0.24;fill:#1B61A4;enable-background:new    ;}
	.st1{fill:#1B61A4;}
</style>
<path class="st0" d="M12,23C5.9,23,1,18.1,1,12S5.9,1,12,1s11,4.9,11,11S18.1,23,12,23z M12,5.1c-3.8,0-6.9,3.1-6.9,6.9
	s3.1,6.9,6.9,6.9s6.9-3.1,6.9-6.9S15.8,5.1,12,5.1z"/>
<path class="st1" d="M12,23c-5,0-9.4-3.4-10.6-8.2c-0.3-1.1,0.4-2.2,1.4-2.5c1.1-0.3,2.2,0.4,2.5,1.5c0.8,3,3.6,5.1,6.7,5.1
	c3.8,0,6.9-3.1,6.9-6.9S15.8,5.1,12,5.1c-1.1,0-2-1-2-2.1s0.9-2,2-2C18.1,1,23,5.9,23,12.1C23,18.1,18.1,23,12,23z"/>
</svg>
