<svg version="1" xmlns="http://www.w3.org/2000/svg" width="400" height="400" viewBox="0 0 300.000000 300.000000"><path d="M144 84.7c-2.3 1.2-4.4 3.6-6.2 6.8-3 5.7-3.4 9.4-1.3 13.4.8 1.6 1.3 3 1 3.2-.2.2 4.9.4 11.3.4 11 0 12.1.2 18.3 3.1 16.6 7.9 25.5 22.5 24.7 40.4-.6 11.7-3.4 18.4-11 26.6-17.2 18.4-44.3 18.4-61.5 0-5.6-5.9-6.7-8-11.6-21-2.1-5.6-10.5-8.3-16.5-5.2-5.3 2.8-6.8 5.5-6.1 11.6 1.4 12.1 8.3 24.5 19.5 35 32.6 30.7 86 20.8 105.4-19.5 5.6-11.6 6.4-15.4 6.4-29.5 0-10.9-.4-13.6-2.7-20.7-4.9-14.7-16-28.5-29.5-36.7-12.7-7.7-32.9-11.7-40.2-7.9z"/></svg>