<?xml version="1.0" standalone="no"?>
<!DOCTYPE svg PUBLIC "-//W3C//DTD SVG 20010904//EN"
 "http://www.w3.org/TR/2001/REC-SVG-20010904/DTD/svg10.dtd">
<svg version="1.0" xmlns="http://www.w3.org/2000/svg"
 width="16.000000pt" height="16.000000pt" viewBox="0 0 16.000000 16.000000"
 preserveAspectRatio="xMidYMid meet">
<metadata>
Created by potrace 1.11, written by Peter Selinger 2001-2013
</metadata>
<g transform="translate(0.000000,16.000000) scale(0.016667,-0.016667)"
fill="#000000" stroke="none">
<path d="M383 782 c-75 -27 -115 -60 -168 -140 -1 -1 -11 -4 -22 -6 -40 -8
-89 -35 -119 -65 -120 -119 -85 -316 69 -389 39 -19 62 -20 349 -21 295 -1
309 -1 353 20 167 79 139 334 -41 373 -25 6 -33 14 -43 46 -43 145 -230 235
-378 182z"/>
</g>
</svg>
